<svg xmlns="http://www.w3.org/2000/svg" viewBox="0 0 357.71 155"><title>Recurso 5</title><g id="Capa_2" data-name="Capa 2"><g id="Capa_1-2" data-name="Capa 1"><path d="M.06,61.88V49.15L19.14,29.66a37.78,37.78,0,0,0,3.05-3.39,16.18,16.18,0,0,0,1.95-3.06,7.19,7.19,0,0,0,.7-3.05,5.52,5.52,0,0,0-.66-2.85,3.72,3.72,0,0,0-2-1.61,10.45,10.45,0,0,0-3.51-.5H1.05V2.48c2.69-.61,5.71-1.17,9-1.7A76.11,76.11,0,0,1,21.7,0Q29,0,33.14,2a11.9,11.9,0,0,1,6,5.87,22.82,22.82,0,0,1,1.77,9.5,23.55,23.55,0,0,1-1.07,7.35,23.54,23.54,0,0,1-3.1,6.2,44,44,0,0,1-4.91,5.78L21.2,47.5H42.52V61.88Z"/><path d="M64.9,62.37a19.94,19.94,0,0,1-9.37-2A12.5,12.5,0,0,1,50,54.65a20.48,20.48,0,0,1-1.82-9V17.51a21.21,21.21,0,0,1,1.95-9.58A13.18,13.18,0,0,1,55.82,2,19.38,19.38,0,0,1,65,0H78.37a17.81,17.81,0,0,1,8.8,2,13.09,13.09,0,0,1,5.45,5.91,22.08,22.08,0,0,1,1.86,9.58V45.68q0,7.77-4.17,12.23t-12,4.46Zm4-14.37h5a4.86,4.86,0,0,0,3.42-1.12,4.82,4.82,0,0,0,1.2-3.67v-24c0-1.93-.38-3.21-1.15-3.85a4.32,4.32,0,0,0-2.81-1h-6.2a3.93,3.93,0,0,0-3.14,1.16,5.52,5.52,0,0,0-1,3.64V43.12a5,5,0,0,0,1.16,3.76A5,5,0,0,0,68.87,48Z"/><path d="M12.16,154.38V96.17H0V83.39l14.42-6.18H32.15v77.17Z"/><path d="M64.6,155a101.74,101.74,0,0,1-10.51-.52,67.84,67.84,0,0,1-9.27-1.54V137.07H62.23q7,0,9.74-3.5t2.73-9.89A25.7,25.7,0,0,1,70.89,125a24.4,24.4,0,0,1-4.53.67q-2.58.15-6.39.15-8,0-12.26-2.47a13,13,0,0,1-5.83-6.7,26.45,26.45,0,0,1-1.59-9.38V96.17q0-6.7,2.42-10.88a14.53,14.53,0,0,1,6.85-6.13,25.65,25.65,0,0,1,10.41-2H70.58a30,30,0,0,1,10.61,1.7,16.15,16.15,0,0,1,7.53,5.82q3,4.13,4.48,11.38a93.66,93.66,0,0,1,1.49,18.29,81.43,81.43,0,0,1-2,19.73q-2,7.89-5.92,12.47a21.36,21.36,0,0,1-9.48,6.49A38.8,38.8,0,0,1,64.6,155Zm1.24-46.06H74.7a46.92,46.92,0,0,0-.41-6.8,11.05,11.05,0,0,0-1.39-4.22,5.32,5.32,0,0,0-2.52-2.17,10.74,10.74,0,0,0-3.92-.62H64.71a4.9,4.9,0,0,0-2.63.62,3.41,3.41,0,0,0-1.39,1.75,8.47,8.47,0,0,0-.41,2.89v2.88a10,10,0,0,0,.46,3.41,3,3,0,0,0,1.7,1.75A9.18,9.18,0,0,0,65.84,108.94Z"/><path d="M116.38,37a18.6,18.6,0,0,1-2.82-.25,9.72,9.72,0,0,1-3.18-1.07,6.67,6.67,0,0,1-2.57-2.57,9.35,9.35,0,0,1-1-4.78v-19a10.42,10.42,0,0,1,.83-4.41,7.4,7.4,0,0,1,2.16-2.76A8.23,8.23,0,0,1,112.7.76a12.45,12.45,0,0,1,3.14-.42q4.11,0,7.07.13c2,.08,3.69.17,5.14.26s2.73.22,3.84.35v8H118.77a2.83,2.83,0,0,0-1.86.53,2,2,0,0,0-.63,1.62v3l13.17.49v7.54l-13.17.49v2.74a3.38,3.38,0,0,0,.27,1.45,1.81,1.81,0,0,0,.76.83,2.15,2.15,0,0,0,1.07.27h13.51v8c-1.4.19-3,.36-4.79.49s-3.63.22-5.49.29S118,37,116.38,37Z"/><path d="M147.75,37c-1.07,0-2.13,0-3.15-.1s-2-.16-3-.29-1.95-.28-2.86-.44-1.8-.36-2.65-.59V28.05q1.66.15,3.6.24c1.29.07,2.6.12,3.92.15s2.55,0,3.69,0a12.73,12.73,0,0,0,2.7-.24,3.33,3.33,0,0,0,1.61-.79,2,2,0,0,0,.54-1.47v-.58a1.85,1.85,0,0,0-.76-1.62,3,3,0,0,0-1.79-.54H147q-5.68,0-8.62-2.49t-2.93-8.38V10.77c0-3.59,1.07-6.27,3.23-8S143.9.05,148,.05a39.42,39.42,0,0,1,4.33.22c1.36.15,2.63.33,3.82.54s2.26.43,3.21.66V9c-1.5-.13-3.19-.24-5.07-.32s-3.58-.12-5.12-.12a13.74,13.74,0,0,0-2.44.19,3,3,0,0,0-1.67.79,2.32,2.32,0,0,0-.59,1.71v.49a2.27,2.27,0,0,0,.79,1.86,3.78,3.78,0,0,0,2.4.64h3.23a11.44,11.44,0,0,1,5.7,1.29A8.51,8.51,0,0,1,160,19.07a10.93,10.93,0,0,1,1.15,5.06v1.62q0,4.65-1.62,7.1a7.9,7.9,0,0,1-4.6,3.3A26.16,26.16,0,0,1,147.75,37Z"/><path d="M172.82,36.71V8.86h-9.16V.34h27.81V8.86h-9.16V36.71Z"/><path d="M190.05,36.71,200.82.34h11.84l10.77,36.37h-9.84l-1.46-5.77H201.21l-1.42,5.77Zm13.36-14.29h6.51l-3.28-14Z"/><path d="M235.82,36.71a12.9,12.9,0,0,1-5.39-1,6.18,6.18,0,0,1-3.08-3.09,12.84,12.84,0,0,1-1-5.38V.34h9.5V25.65a3.36,3.36,0,0,0,.27,1.42,1.7,1.7,0,0,0,.85.86,3.43,3.43,0,0,0,1.42.27H249v8.51Z"/><path d="M262.11,36.71a12.87,12.87,0,0,1-5.39-1,6.18,6.18,0,0,1-3.08-3.09,12.68,12.68,0,0,1-1-5.38V.34h9.5V25.65a3.37,3.37,0,0,0,.26,1.42,1.72,1.72,0,0,0,.86.86,3.39,3.39,0,0,0,1.42.27h10.57v8.51Z"/><path d="M279,36.71V.34h9.49V36.71Z"/><path d="M293.83,36.71V.34h16.05a13.42,13.42,0,0,1,6.51,1.4,10.37,10.37,0,0,1,4,3.89,17.25,17.25,0,0,1,2,5.8,39.91,39.91,0,0,1,.59,7.12A31.26,31.26,0,0,1,321.61,29a11.32,11.32,0,0,1-4.36,5.87,13.29,13.29,0,0,1-7.37,1.88Zm9.49-8.51h5.58a3.88,3.88,0,0,0,2.82-1,5.83,5.83,0,0,0,1.42-3.11,29.86,29.86,0,0,0,.41-5.56,33.64,33.64,0,0,0-.31-5.16,8.41,8.41,0,0,0-.93-2.91,3,3,0,0,0-1.47-1.3,5.6,5.6,0,0,0-1.94-.32h-5.58Z"/><path d="M342.14,37a26.84,26.84,0,0,1-6.78-.76,10.5,10.5,0,0,1-4.87-2.72,12.33,12.33,0,0,1-2.94-5.6,37.44,37.44,0,0,1-1-9.43,37.41,37.41,0,0,1,1-9.42,12.33,12.33,0,0,1,2.94-5.6A10.5,10.5,0,0,1,335.36.76a30.62,30.62,0,0,1,13.56,0,10.45,10.45,0,0,1,4.87,2.72,12.15,12.15,0,0,1,2.94,5.6,37.41,37.41,0,0,1,1,9.42,37.44,37.44,0,0,1-1,9.43,12.15,12.15,0,0,1-2.94,5.6,10.45,10.45,0,0,1-4.87,2.72A26.84,26.84,0,0,1,342.14,37Zm0-8.52a8.93,8.93,0,0,0,3-.44A3.54,3.54,0,0,0,347,26.53a7.92,7.92,0,0,0,.93-3,37.85,37.85,0,0,0,.27-5,39.24,39.24,0,0,0-.27-5.14,7.81,7.81,0,0,0-.93-3,3.35,3.35,0,0,0-1.83-1.44,11.93,11.93,0,0,0-6.05,0,3.35,3.35,0,0,0-1.86,1.44,7.81,7.81,0,0,0-.93,3,39.24,39.24,0,0,0-.27,5.14,37.85,37.85,0,0,0,.27,5,7.92,7.92,0,0,0,.93,3,3.53,3.53,0,0,0,1.86,1.52A8.9,8.9,0,0,0,342.14,28.49Z"/><path d="M118.19,95.75c-1.08,0-2.13,0-3.16-.1s-2-.16-3-.29-1.95-.28-2.86-.44-1.8-.36-2.64-.59V86.79c1.11.1,2.31.18,3.6.25s2.59.11,3.91.15,2.55,0,3.7,0a12.69,12.69,0,0,0,2.69-.24,3.16,3.16,0,0,0,1.61-.78,2,2,0,0,0,.54-1.47v-.59a1.85,1.85,0,0,0-.76-1.62A3,3,0,0,0,120,82h-2.6c-3.78,0-6.65-.84-8.61-2.5s-2.94-4.45-2.94-8.37V69.51q0-5.39,3.23-8.05t9.3-2.67a41.91,41.91,0,0,1,4.33.22c1.36.15,2.63.33,3.82.54s2.26.43,3.21.66v7.54c-1.5-.13-3.19-.24-5.07-.32s-3.58-.12-5.11-.12a13.79,13.79,0,0,0-2.45.2,3,3,0,0,0-1.66.78,2.28,2.28,0,0,0-.59,1.71v.49a2.25,2.25,0,0,0,.78,1.86A3.72,3.72,0,0,0,118,73h3.23a11.31,11.31,0,0,1,5.7,1.3,8.48,8.48,0,0,1,3.43,3.52,10.88,10.88,0,0,1,1.15,5.07v1.61q0,4.65-1.61,7.1a8,8,0,0,1-4.61,3.31A26.17,26.17,0,0,1,118.19,95.75Z"/><path d="M150.64,95.75a26.84,26.84,0,0,1-6.78-.76A10.48,10.48,0,0,1,139,92.28a12.33,12.33,0,0,1-2.94-5.61,37.41,37.41,0,0,1-1-9.42,37.55,37.55,0,0,1,1-9.43,12.24,12.24,0,0,1,2.94-5.6,10.5,10.5,0,0,1,4.87-2.72,30.62,30.62,0,0,1,13.56,0,10.45,10.45,0,0,1,4.87,2.72,12.15,12.15,0,0,1,2.94,5.6,37.55,37.55,0,0,1,1,9.43,37.41,37.41,0,0,1-1,9.42,12.24,12.24,0,0,1-2.94,5.61A10.43,10.43,0,0,1,157.42,95,26.84,26.84,0,0,1,150.64,95.75Zm0-8.52a8.69,8.69,0,0,0,3-.44,3.57,3.57,0,0,0,1.83-1.51,8,8,0,0,0,.93-3,37.68,37.68,0,0,0,.27-5,39.13,39.13,0,0,0-.27-5.14,7.69,7.69,0,0,0-.93-3,3.37,3.37,0,0,0-1.83-1.45,11.93,11.93,0,0,0-6.05,0,3.37,3.37,0,0,0-1.86,1.45,7.69,7.69,0,0,0-.93,3,39.13,39.13,0,0,0-.27,5.14,37.68,37.68,0,0,0,.27,5,8,8,0,0,0,.93,3,3.56,3.56,0,0,0,1.86,1.51A8.66,8.66,0,0,0,150.64,87.23Z"/><path d="M183.1,95.75a19.19,19.19,0,0,1-5.53-.73,9.07,9.07,0,0,1-4.21-2.69,13.16,13.16,0,0,1-2.7-5.63,40.06,40.06,0,0,1-.93-9.55,36.6,36.6,0,0,1,1-9.3,13.58,13.58,0,0,1,2.77-5.61,9.38,9.38,0,0,1,4.23-2.74,18.33,18.33,0,0,1,5.39-.76,40.32,40.32,0,0,1,5.36.32,32.61,32.61,0,0,1,4,.76,17.56,17.56,0,0,1,2.62.88v7.39q-.93-.2-2.4-.39c-1-.13-2.09-.23-3.35-.32s-2.62-.12-4.09-.12a10.23,10.23,0,0,0-2.81.34A3.31,3.31,0,0,0,180.55,69a7.66,7.66,0,0,0-1,3,34.8,34.8,0,0,0-.32,5.26,41.2,41.2,0,0,0,.24,4.89,8.2,8.2,0,0,0,.89,3.06,3.49,3.49,0,0,0,1.83,1.57,8.76,8.76,0,0,0,3.11.46q3.72,0,6-.12c1.55-.08,2.78-.19,3.69-.32v7.4a17.94,17.94,0,0,1-2.86.83,33.49,33.49,0,0,1-3.84.54C186.87,95.69,185.12,95.75,183.1,95.75Z"/><path d="M199.5,95.46V59.09H209V95.46Z"/><path d="M211.93,95.46,222.7,59.09h11.85l10.77,36.37h-9.84L234,89.68H223.09l-1.42,5.78Zm13.36-14.3h6.51l-3.28-14Z"/><path d="M257.7,95.46a12.81,12.81,0,0,1-5.38-1,6.14,6.14,0,0,1-3.09-3.08,12.89,12.89,0,0,1-1-5.39V59.09h9.5V84.4a3.35,3.35,0,0,0,.27,1.41,1.64,1.64,0,0,0,.86.86,3.35,3.35,0,0,0,1.41.27h10.58v8.52Z"/><path d="M116.38,154.5a20,20,0,0,1-2.82-.25,9.52,9.52,0,0,1-3.18-1.08,6.6,6.6,0,0,1-2.57-2.57,9.31,9.31,0,0,1-1-4.77v-19a10.39,10.39,0,0,1,.83-4.41,7.4,7.4,0,0,1,2.16-2.76,8.06,8.06,0,0,1,2.93-1.42,12.45,12.45,0,0,1,3.14-.42q4.11,0,7.07.12c2,.08,3.69.17,5.14.27s2.73.21,3.84.34v8H118.77a2.83,2.83,0,0,0-1.86.54,2,2,0,0,0-.63,1.62v3l13.17.49v7.54l-13.17.49V143a3.3,3.3,0,0,0,.27,1.44,1.79,1.79,0,0,0,.76.84,2.15,2.15,0,0,0,1.07.27h13.51v8c-1.4.2-3,.36-4.79.49s-3.63.23-5.49.3S118,154.5,116.38,154.5Z"/><path d="M136.35,154.2V117.83h7.54l12.77,20.27V117.83h9.5V154.2h-7.54l-12.78-20.26V154.2Z"/><path d="M196.22,154.5a19.18,19.18,0,0,1-5.53-.74,9.07,9.07,0,0,1-4.21-2.69,13.1,13.1,0,0,1-2.7-5.63,40.06,40.06,0,0,1-.93-9.55,36.71,36.71,0,0,1,1-9.3,13.53,13.53,0,0,1,2.77-5.6,9.3,9.3,0,0,1,4.23-2.74,18,18,0,0,1,5.39-.76,38.7,38.7,0,0,1,5.36.32,32.79,32.79,0,0,1,4,.75,17.43,17.43,0,0,1,2.62.89v7.39q-.93-.2-2.4-.39c-1-.13-2.09-.24-3.35-.32s-2.62-.12-4.09-.12a9.86,9.86,0,0,0-2.81.34,3.27,3.27,0,0,0-1.84,1.37,7.6,7.6,0,0,0-1,3,34.89,34.89,0,0,0-.32,5.26,41.5,41.5,0,0,0,.24,4.9,8.32,8.32,0,0,0,.89,3.06,3.51,3.51,0,0,0,1.83,1.56,8.74,8.74,0,0,0,3.11.47q3.72,0,6.05-.12c1.55-.09,2.78-.19,3.69-.32v7.39a17,17,0,0,1-2.86.83,33.37,33.37,0,0,1-3.85.54C200,154.43,198.24,154.5,196.22,154.5Z"/><path d="M212.62,154.2V117.83h9.49v14h10.77v-14h9.5V154.2h-9.5V140.35H222.11V154.2Z"/><path d="M247.76,154.2V117.83h9.5V154.2Z"/><path d="M272.09,154.2a12.68,12.68,0,0,1-5.38-1,6.18,6.18,0,0,1-3.09-3.08,12.86,12.86,0,0,1-1-5.39V117.83h9.5v25.31a3.39,3.39,0,0,0,.27,1.42,1.66,1.66,0,0,0,.86.85,3.36,3.36,0,0,0,1.42.27h10.57v8.52Z"/><path d="M298.53,154.5a20,20,0,0,1-2.82-.25,9.52,9.52,0,0,1-3.18-1.08A6.6,6.6,0,0,1,290,150.6a9.31,9.31,0,0,1-1-4.77v-19a10.39,10.39,0,0,1,.83-4.41,7.4,7.4,0,0,1,2.16-2.76,8.06,8.06,0,0,1,2.93-1.42,12.51,12.51,0,0,1,3.14-.42q4.11,0,7.07.12c2,.08,3.69.17,5.14.27s2.73.21,3.84.34v8H300.92a2.83,2.83,0,0,0-1.86.54,2,2,0,0,0-.63,1.62v3l13.17.49v7.54l-13.17.49V143a3.3,3.3,0,0,0,.27,1.44,1.79,1.79,0,0,0,.76.84,2.15,2.15,0,0,0,1.07.27H314v8c-1.4.2-3,.36-4.79.49s-3.63.23-5.49.3S300.16,154.5,298.53,154.5Z"/></g></g></svg>